<svg xmlns="http://www.w3.org/2000/svg" width="1200" height="820" viewBox="0 0 1200 820" role="img" aria-label="Placeholder CRM ASP.NET MVC">
  <rect width="1200" height="820" fill="#f1f5f9"/>
  <rect x="90" y="74" width="1020" height="672" rx="24" fill="#ffffff"/>
  <rect x="90" y="74" width="230" height="672" rx="24" fill="#111827"/>
  <rect x="132" y="132" width="116" height="24" rx="12" fill="#ffffff"/>
  <rect x="132" y="224" width="128" height="16" rx="8" fill="#64748b"/>
  <rect x="132" y="270" width="112" height="16" rx="8" fill="#64748b"/>
  <rect x="132" y="316" width="142" height="16" rx="8" fill="#64748b"/>
  <rect x="380" y="132" width="280" height="34" rx="17" fill="#111827"/>
  <rect x="380" y="214" width="190" height="110" rx="18" fill="#dbeafe"/>
  <rect x="610" y="214" width="190" height="110" rx="18" fill="#dcfce7"/>
  <rect x="840" y="214" width="190" height="110" rx="18" fill="#ffedd5"/>
  <rect x="380" y="386" width="650" height="48" rx="12" fill="#f8fafc"/>
  <rect x="380" y="456" width="650" height="48" rx="12" fill="#f8fafc"/>
  <rect x="380" y="526" width="650" height="48" rx="12" fill="#f8fafc"/>
  <text x="380" y="660" fill="#334155" font-family="Inter, Arial, sans-serif" font-size="28" font-weight="700">Captura del dashboard aqui</text>
</svg>
